# xmcd
#
# Track frame offsets: 
#        150
#        21158
#        35132
#        56759
#        73121
#        93523
#        115185
#        126805
#        147106
#        164658
#        182502
#        201549
#        218414
#
# Disc length: 3128 seconds
#
# Revision: 0
# Processed by: cddbd v1.5.2PL0 Copyright (c) Steve Scherf et al.
# Submitted via: ExactAudioCopyFreeDBPlugin 1.0
#
DISCID=c40c360d
DTITLE=Matt Andersen - Halfway Home By Morning
DYEAR=2019
DGENRE=Blues
TTITLE0=What Would Your Mama Say
TTITLE1=Free Man
TTITLE2=Something to Loose (Feat. Amy Helm)
TTITLE3=The Bed I Made
TTITLE4=Give Me Some Light
TTITLE5=Better Than You Want
TTITLE6=Gasoline
TTITLE7=Over Me
TTITLE8=Help Yours Elf
TTITLE9=Long Rider
TTITLE10=Take Me Back
TTITLE11=Been My Last
TTITLE12=Quarter On The Ground (A Song for Uncle Joe)
EXTD=
EXTT0=
EXTT1=
EXTT2=
EXTT3=
EXTT4=
EXTT5=
EXTT6=
EXTT7=
EXTT8=
EXTT9=
EXTT10=
EXTT11=
EXTT12=
PLAYORDER=
